subject20_rfs_trial11_ground_reaction
version=1
nRows=27
nColumns=19
inDegrees=no
endheader
time	ground_force_r_vx	ground_force_r_vy	ground_force_r_vz	ground_force_r_px	ground_force_r_py	ground_force_r_pz	ground_torque_r_x	ground_torque_r_y	ground_torque_r_z	ground_force_l_vx	ground_force_l_vy	ground_force_l_vz	ground_force_l_px	ground_force_l_py	ground_force_l_pz	ground_torque_l_x	ground_torque_l_y	ground_torque_l_z
      1.09000000	      0.00000000	      0.00000000	      0.00000000	  24165.62099500	      0.00000000	  20346.72293500	      0.00000000	      0.00000000	      0.00000000	      0.00000000	      0.00000000	      0.00000000	    274.53520200	      0.00000000	    492.68691100	      0.00000000	      0.00000000	      0.00000000
      1.09500000	      0.00000000	      0.00000000	      0.00000000	  24811.06795300	      0.00000000	  20894.61025300	      0.00000000	      0.00000000	      0.00000000	      0.00000000	      0.00000000	      0.00000000	    299.67850000	      0.00000000	    538.61152500	      0.00000000	      0.00000000	      0.00000000
      1.10000000	      0.00000000	      0.00000000	      0.00000000	  25467.90685600	      0.00000000	  21452.24605800	      0.00000000	      0.00000000	      0.00000000	      0.00000000	      0.00000000	      0.00000000	    326.32314600	      0.00000000	    587.30517600	      0.00000000	      0.00000000	      0.00000000
      1.10500000	      0.00000000	      0.00000000	      0.00000000	  26136.23735700	      0.00000000	  22019.71631700	      0.00000000	      0.00000000	      0.00000000	      0.00000000	      0.00000000	      0.00000000	    354.51273900	      0.00000000	    638.84896400	      0.00000000	      0.00000000	      0.00000000
      1.11000000	      0.00000000	      0.00000000	      0.00000000	  26816.15911100	      0.00000000	  22597.10699600	      0.00000000	      0.00000000	      0.00000000	      0.00000000	      0.00000000	      0.00000000	    384.29088100	      0.00000000	    693.32398900	      0.00000000	      0.00000000	      0.00000000
      1.11500000	      0.00000000	      0.00000000	      0.00000000	  27507.77177100	      0.00000000	  23184.50406100	      0.00000000	      0.00000000	      0.00000000	      0.00000000	      0.00000000	      0.00000000	    415.70117000	      0.00000000	    750.81135200	      0.00000000	      0.00000000	      0.00000000
      1.12000000	      0.00000000	      0.00000000	      0.00000000	  28211.17499000	      0.00000000	  23781.99348000	      0.00000000	      0.00000000	      0.00000000	      0.00000000	      0.00000000	      0.00000000	    448.78720800	      0.00000000	    811.39215200	      0.00000000	      0.00000000	      0.00000000
      1.12500000	      0.00000000	      0.00000000	      0.00000000	  28926.46842300	      0.00000000	  24389.66122000	      0.00000000	      0.00000000	      0.00000000	      0.00000000	      0.00000000	      0.00000000	    483.59259300	      0.00000000	    875.14749100	      0.00000000	      0.00000000	      0.00000000
      1.13000000	      0.00000000	      0.00000000	      0.00000000	  29653.75172300	      0.00000000	  25007.59324700	      0.00000000	      0.00000000	      0.00000000	      0.00000000	      0.00000000	      0.00000000	    520.16092700	      0.00000000	    942.15846700	      0.00000000	      0.00000000	      0.00000000
      1.13500000	      0.00000000	      0.00000000	      0.00000000	  30393.12454400	      0.00000000	  25635.87552700	      0.00000000	      0.00000000	      0.00000000	      0.00000000	      0.00000000	      0.00000000	    558.53580900	      0.00000000	   1012.50618300	      0.00000000	      0.00000000	      0.00000000
      1.14000000	      0.00000000	      0.00000000	      0.00000000	  31144.68653900	      0.00000000	  26274.59402800	      0.00000000	      0.00000000	      0.00000000	      0.00000000	      0.00000000	      0.00000000	    598.76083900	      0.00000000	   1086.27173700	      0.00000000	      0.00000000	      0.00000000
      1.14500000	      0.00000000	      0.00000000	      0.00000000	  31908.53736300	      0.00000000	  26923.83471700	      0.00000000	      0.00000000	      0.00000000	      0.00000000	      0.00000000	      0.00000000	    640.87961800	      0.00000000	   1163.53623000	      0.00000000	      0.00000000	      0.00000000
      1.15000000	      0.00000000	      0.00000000	      0.00000000	  32684.77666900	      0.00000000	  27583.68355900	      0.00000000	      0.00000000	      0.00000000	      0.00000000	      0.00000000	      0.00000000	    684.93574500	      0.00000000	   1244.38076200	      0.00000000	      0.00000000	      0.00000000
      1.15500000	      0.00000000	      0.00000000	      0.00000000	  33473.50411000	      0.00000000	  28254.22652300	      0.00000000	      0.00000000	      0.00000000	      0.00000000	      0.00000000	      0.00000000	    730.97282000	      0.00000000	   1328.88643300	      0.00000000	      0.00000000	      0.00000000
      1.16000000	      0.00000000	      0.00000000	      0.00000000	  34274.81934000	      0.00000000	  28935.54957400	      0.00000000	      0.00000000	      0.00000000	      0.00000000	      0.00000000	      0.00000000	    779.03444400	      0.00000000	   1417.13434400	      0.00000000	      0.00000000	      0.00000000
      1.16500000	      0.00000000	      0.00000000	      0.00000000	  35088.82201400	      0.00000000	  29627.73867900	      0.00000000	      0.00000000	      0.00000000	      0.00000000	      0.00000000	      0.00000000	    829.16421600	      0.00000000	   1509.20559500	      0.00000000	      0.00000000	      0.00000000
      1.17000000	      0.00000000	      0.00000000	      0.00000000	  35915.61178400	      0.00000000	  30330.87980500	      0.00000000	      0.00000000	      0.00000000	      0.00000000	      0.00000000	      0.00000000	    881.40573700	      0.00000000	   1605.18128600	      0.00000000	      0.00000000	      0.00000000
      1.17500000	      0.00000000	      0.00000000	      0.00000000	  36755.28830500	      0.00000000	  31045.05891900	      0.00000000	      0.00000000	      0.00000000	      0.00000000	      0.00000000	      0.00000000	    935.80260700	      0.00000000	   1705.14251800	      0.00000000	      0.00000000	      0.00000000
      1.18000000	      0.00000000	      0.00000000	      0.00000000	  37607.95123000	      0.00000000	  31770.36198800	      0.00000000	      0.00000000	      0.00000000	      0.00000000	      0.00000000	      0.00000000	    992.39842500	      0.00000000	   1809.17039000	      0.00000000	      0.00000000	      0.00000000
      1.18500000	      0.00000000	      0.00000000	      0.00000000	  38473.70021300	      0.00000000	  32506.87497700	      0.00000000	      0.00000000	      0.00000000	      0.00000000	      0.00000000	      0.00000000	   1051.23679200	      0.00000000	   1917.34600200	      0.00000000	      0.00000000	      0.00000000
      1.19000000	      0.00000000	      0.00000000	      0.00000000	  39352.63490700	      0.00000000	  33254.68385500	      0.00000000	      0.00000000	      0.00000000	      0.00000000	      0.00000000	      0.00000000	   1112.36130800	      0.00000000	   2029.75045600	      0.00000000	      0.00000000	      0.00000000
      1.19500000	      0.00000000	      0.00000000	      0.00000000	  40244.85496600	      0.00000000	  34013.87458800	      0.00000000	      0.00000000	      0.00000000	      0.00000000	      0.00000000	      0.00000000	   1175.81557200	      0.00000000	   2146.46485100	      0.00000000	      0.00000000	      0.00000000
      1.20000000	      0.00000000	      0.00000000	      0.00000000	  41150.46004500	      0.00000000	  34784.53314200	      0.00000000	      0.00000000	      0.00000000	      0.00000000	      0.00000000	      0.00000000	   1241.64318600	      0.00000000	   2267.57028800	      0.00000000	      0.00000000	      0.00000000
      1.20500000	      0.00000000	      0.00000000	      0.00000000	  42069.54979600	      0.00000000	  35566.74548400	      0.00000000	      0.00000000	      0.00000000	      0.00000000	      0.00000000	      0.00000000	   1309.88774900	      0.00000000	   2393.14786600	      0.00000000	      0.00000000	      0.00000000
      1.21000000	      0.00000000	      0.00000000	      0.00000000	  43002.22387300	      0.00000000	  36360.59758100	      0.00000000	      0.00000000	      0.00000000	      0.00000000	      0.00000000	      0.00000000	   1380.59286000	      0.00000000	   2523.27868600	      0.00000000	      0.00000000	      0.00000000
      1.21500000	      0.00000000	      0.00000000	      0.00000000	  43948.58193000	      0.00000000	  37166.17540000	      0.00000000	      0.00000000	      0.00000000	      0.00000000	      0.00000000	      0.00000000	   1453.80212100	      0.00000000	   2658.04384900	      0.00000000	      0.00000000	      0.00000000
      1.22000000	      0.00000000	      0.00000000	      0.00000000	  44908.72362100	      0.00000000	  37983.56490700	      0.00000000	      0.00000000	      0.00000000	      0.00000000	      0.00000000	      0.00000000	   1529.55913100	      0.00000000	   2797.52445400	      0.00000000	      0.00000000	      0.00000000
